<svg xmlns="http://www.w3.org/2000/svg" viewBox="0 0 32 32" fill="none" role="img" aria-label="本析">
  <defs>
    <linearGradient id="rose" x1="6" y1="4" x2="26" y2="28" gradientUnits="userSpaceOnUse">
      <stop stop-color="#e9e0ff"/>
      <stop offset="0.52" stop-color="#c4b5fd"/>
      <stop offset="1" stop-color="#a78bfa"/>
    </linearGradient>
  </defs>
  <path d="M 27.10 16.00 L 27.07 16.25 L 27.01 16.49 L 26.90 16.73 L 26.75 16.97 L 26.56 17.20 L 26.33 17.41 L 26.05 17.62 L 25.74 17.81 L 25.39 17.98 L 25.01 18.14 L 24.59 18.27 L 24.13 18.39 L 23.65 18.48 L 23.13 18.55 L 22.59 18.60 L 22.03 18.62 L 21.44 18.61 L 20.83 18.58 L 20.21 18.52 L 19.57 18.43 L 18.91 18.31 L 18.25 18.16 L 17.58 17.99 L 16.90 17.79 L 16.22 17.55 L 15.55 17.29 L 14.87 17.01 L 14.20 16.70 L 13.54 16.36 L 12.89 16.00 L 12.26 15.62 L 11.63 15.21 L 11.03 14.79 L 10.44 14.35 L 9.88 13.89 L 9.34 13.42 L 8.83 12.94 L 8.34 12.44 L 7.88 11.94 L 7.45 11.43 L 7.05 10.92 L 6.69 10.41 L 6.35 9.90 L 6.06 9.40 L 5.79 8.90 L 5.56 8.41 L 5.36 7.93 L 5.20 7.46 L 5.08 7.01 L 4.99 6.58 L 4.93 6.16 L 4.90 5.77 L 4.91 5.41 L 4.95 5.07 L 5.02 4.76 L 5.12 4.48 L 5.25 4.23 L 5.41 4.02 L 5.59 3.84 L 5.79 3.70 L 6.02 3.59 L 6.26 3.53 L 6.52 3.50 L 6.80 3.51 L 7.09 3.57 L 7.40 3.66 L 7.71 3.79 L 8.03 3.97 L 8.36 4.18 L 8.69 4.44 L 9.01 4.74 L 9.34 5.07 L 9.67 5.44 L 9.98 5.85 L 10.29 6.30 L 10.59 6.78 L 10.88 7.29 L 11.16 7.83 L 11.42 8.41 L 11.66 9.01 L 11.88 9.63 L 12.09 10.28 L 12.27 10.95 L 12.43 11.63 L 12.57 12.34 L 12.69 13.05 L 12.78 13.78 L 12.84 14.52 L 12.88 15.26 L 12.89 16.00 L 12.88 16.74 L 12.84 17.48 L 12.78 18.22 L 12.69 18.95 L 12.57 19.66 L 12.43 20.37 L 12.27 21.05 L 12.09 21.72 L 11.88 22.37 L 11.66 22.99 L 11.42 23.59 L 11.16 24.17 L 10.88 24.71 L 10.59 25.22 L 10.29 25.70 L 9.98 26.15 L 9.67 26.56 L 9.34 26.93 L 9.01 27.26 L 8.69 27.56 L 8.36 27.82 L 8.03 28.03 L 7.71 28.21 L 7.40 28.34 L 7.09 28.43 L 6.80 28.49 L 6.52 28.50 L 6.26 28.47 L 6.02 28.41 L 5.79 28.30 L 5.59 28.16 L 5.41 27.98 L 5.25 27.77 L 5.12 27.52 L 5.02 27.24 L 4.95 26.93 L 4.91 26.59 L 4.90 26.23 L 4.93 25.84 L 4.99 25.42 L 5.08 24.99 L 5.20 24.54 L 5.36 24.07 L 5.56 23.59 L 5.79 23.10 L 6.06 22.60 L 6.35 22.10 L 6.69 21.59 L 7.05 21.08 L 7.45 20.57 L 7.88 20.06 L 8.34 19.56 L 8.83 19.06 L 9.34 18.58 L 9.88 18.11 L 10.44 17.65 L 11.03 17.21 L 11.63 16.79 L 12.26 16.38 L 12.89 16.00 L 13.54 15.64 L 14.20 15.30 L 14.87 14.99 L 15.55 14.71 L 16.22 14.45 L 16.90 14.21 L 17.58 14.01 L 18.25 13.84 L 18.91 13.69 L 19.57 13.57 L 20.21 13.48 L 20.83 13.42 L 21.44 13.39 L 22.03 13.38 L 22.59 13.40 L 23.13 13.45 L 23.65 13.52 L 24.13 13.61 L 24.59 13.73 L 25.01 13.86 L 25.39 14.02 L 25.74 14.19 L 26.05 14.38 L 26.33 14.59 L 26.56 14.80 L 26.75 15.03 L 26.90 15.27 L 27.01 15.51 L 27.07 15.75 L 27.10 16.00 L 27.07 16.25 L 27.01 16.49 L 26.90 16.73 L 26.75 16.97 L 26.56 17.20 L 26.33 17.41 L 26.05 17.62 L 25.74 17.81 L 25.39 17.98 L 25.01 18.14 L 24.59 18.27 L 24.13 18.39 L 23.65 18.48 L 23.13 18.55 L 22.59 18.60 L 22.03 18.62 L 21.44 18.61 L 20.83 18.58 L 20.21 18.52 L 19.57 18.43 L 18.91 18.31 L 18.25 18.16 L 17.58 17.99 L 16.90 17.79 L 16.22 17.55 L 15.55 17.29 L 14.87 17.01 L 14.20 16.70 L 13.54 16.36 L 12.89 16.00 L 12.26 15.62 L 11.63 15.21 L 11.03 14.79 L 10.44 14.35 L 9.88 13.89 L 9.34 13.42 L 8.83 12.94 L 8.34 12.44 L 7.88 11.94 L 7.45 11.43 L 7.05 10.92 L 6.69 10.41 L 6.35 9.90 L 6.06 9.40 L 5.79 8.90 L 5.56 8.41 L 5.36 7.93 L 5.20 7.46 L 5.08 7.01 L 4.99 6.58 L 4.93 6.16 L 4.90 5.77 L 4.91 5.41 L 4.95 5.07 L 5.02 4.76 L 5.12 4.48 L 5.25 4.23 L 5.41 4.02 L 5.59 3.84 L 5.79 3.70 L 6.02 3.59 L 6.26 3.53 L 6.52 3.50 L 6.80 3.51 L 7.09 3.57 L 7.40 3.66 L 7.71 3.79 L 8.03 3.97 L 8.36 4.18 L 8.69 4.44 L 9.01 4.74 L 9.34 5.07 L 9.67 5.44 L 9.98 5.85 L 10.29 6.30 L 10.59 6.78 L 10.88 7.29 L 11.16 7.83 L 11.42 8.41 L 11.66 9.01 L 11.88 9.63 L 12.09 10.28 L 12.27 10.95 L 12.43 11.63 L 12.57 12.34 L 12.69 13.05 L 12.78 13.78 L 12.84 14.52 L 12.88 15.26 L 12.89 16.00 L 12.88 16.74 L 12.84 17.48 L 12.78 18.22 L 12.69 18.95 L 12.57 19.66 L 12.43 20.37 L 12.27 21.05 L 12.09 21.72 L 11.88 22.37 L 11.66 22.99 L 11.42 23.59 L 11.16 24.17 L 10.88 24.71 L 10.59 25.22 L 10.29 25.70 L 9.98 26.15 L 9.67 26.56 L 9.34 26.93 L 9.01 27.26 L 8.69 27.56 L 8.36 27.82 L 8.03 28.03 L 7.71 28.21 L 7.40 28.34 L 7.09 28.43 L 6.80 28.49 L 6.52 28.50 L 6.26 28.47 L 6.02 28.41 L 5.79 28.30 L 5.59 28.16 L 5.41 27.98 L 5.25 27.77 L 5.12 27.52 L 5.02 27.24 L 4.95 26.93 L 4.91 26.59 L 4.90 26.23 L 4.93 25.84 L 4.99 25.42 L 5.08 24.99 L 5.20 24.54 L 5.36 24.07 L 5.56 23.59 L 5.79 23.10 L 6.06 22.60 L 6.35 22.10 L 6.69 21.59 L 7.05 21.08 L 7.45 20.57 L 7.88 20.06 L 8.34 19.56 L 8.83 19.06 L 9.34 18.58 L 9.88 18.11 L 10.44 17.65 L 11.03 17.21 L 11.63 16.79 L 12.26 16.38 L 12.89 16.00 L 13.54 15.64 L 14.20 15.30 L 14.87 14.99 L 15.55 14.71 L 16.22 14.45 L 16.90 14.21 L 17.58 14.01 L 18.25 13.84 L 18.91 13.69 L 19.57 13.57 L 20.21 13.48 L 20.83 13.42 L 21.44 13.39 L 22.03 13.38 L 22.59 13.40 L 23.13 13.45 L 23.65 13.52 L 24.13 13.61 L 24.59 13.73 L 25.01 13.86 L 25.39 14.02 L 25.74 14.19 L 26.05 14.38 L 26.33 14.59 L 26.56 14.80 L 26.75 15.03 L 26.90 15.27 L 27.01 15.51 L 27.07 15.75 L 27.10 16.00 Z" stroke="rgba(167,139,250,0.45)" stroke-width="1.15" stroke-linecap="round" stroke-linejoin="round"/>
  <circle cx="27.10" cy="16.00" r="0.58" fill="url(#rose)" opacity="1.00"/>
  <circle cx="5.79" cy="3.70" r="0.52" fill="url(#rose)" opacity="0.92"/>
  <circle cx="5.79" cy="28.30" r="0.48" fill="url(#rose)" opacity="0.85"/>
</svg>
