<svg xmlns="http://www.w3.org/2000/svg" viewBox="0 0 100 100" fill="none" role="img" aria-label="本析">
  <path transform="rotate(20 50 50)" d="M 79.91 50.00 L 79.90 50.31 L 79.85 50.63 L 79.76 50.94 L 79.65 51.24 L 79.50 51.55 L 79.32 51.84 L 79.11 52.14 L 78.87 52.42 L 78.60 52.70 L 78.29 52.97 L 77.96 53.23 L 77.59 53.49 L 77.20 53.73 L 76.77 53.95 L 76.32 54.17 L 75.84 54.37 L 75.34 54.56 L 74.81 54.73 L 74.25 54.89 L 73.67 55.03 L 73.07 55.16 L 72.44 55.26 L 71.79 55.35 L 71.12 55.42 L 70.43 55.47 L 69.72 55.51 L 69.00 55.52 L 68.25 55.51 L 67.49 55.48 L 66.72 55.43 L 65.93 55.36 L 65.14 55.27 L 64.33 55.16 L 63.51 55.02 L 62.68 54.87 L 61.84 54.69 L 61.00 54.49 L 60.15 54.27 L 59.30 54.02 L 58.44 53.76 L 57.59 53.47 L 56.73 53.17 L 55.87 52.84 L 55.02 52.49 L 54.17 52.12 L 53.32 51.74 L 52.48 51.33 L 51.65 50.90 L 50.82 50.46 L 50.00 50.00 L 49.19 49.52 L 48.39 49.03 L 47.61 48.52 L 46.83 47.99 L 46.08 47.45 L 45.33 46.90 L 44.60 46.33 L 43.89 45.75 L 43.20 45.17 L 42.52 44.57 L 41.87 43.96 L 41.23 43.34 L 40.61 42.72 L 40.02 42.09 L 39.45 41.45 L 38.90 40.81 L 38.37 40.17 L 37.87 39.53 L 37.39 38.88 L 36.93 38.24 L 36.51 37.59 L 36.10 36.95 L 35.72 36.31 L 35.37 35.67 L 35.04 35.04 L 34.74 34.42 L 34.47 33.81 L 34.22 33.20 L 34.00 32.60 L 33.81 32.02 L 33.64 31.44 L 33.50 30.88 L 33.38 30.34 L 33.29 29.80 L 33.23 29.29 L 33.19 28.79 L 33.17 28.31 L 33.19 27.85 L 33.22 27.41 L 33.28 26.99 L 33.36 26.59 L 33.47 26.21 L 33.59 25.86 L 33.74 25.53 L 33.91 25.22 L 34.10 24.94 L 34.31 24.69 L 34.54 24.47 L 34.78 24.27 L 35.04 24.10 L 35.32 23.95 L 35.62 23.84 L 35.93 23.76 L 36.25 23.70 L 36.59 23.68 L 36.94 23.68 L 37.30 23.72 L 37.66 23.79 L 38.04 23.88 L 38.43 24.01 L 38.82 24.17 L 39.22 24.36 L 39.63 24.58 L 40.04 24.84 L 40.45 25.12 L 40.86 25.43 L 41.28 25.78 L 41.69 26.15 L 42.11 26.55 L 42.52 26.99 L 42.93 27.45 L 43.34 27.94 L 43.74 28.45 L 44.14 29.00 L 44.53 29.57 L 44.91 30.17 L 45.28 30.79 L 45.65 31.44 L 46.00 32.11 L 46.34 32.80 L 46.68 33.52 L 47.00 34.26 L 47.30 35.01 L 47.60 35.79 L 47.88 36.59 L 48.14 37.40 L 48.39 38.23 L 48.62 39.08 L 48.84 39.94 L 49.03 40.81 L 49.21 41.69 L 49.38 42.59 L 49.52 43.49 L 49.65 44.41 L 49.76 45.33 L 49.84 46.25 L 49.91 47.19 L 49.96 48.12 L 49.99 49.06 L 50.00 50.00 L 49.99 50.94 L 49.96 51.88 L 49.91 52.81 L 49.84 53.75 L 49.76 54.67 L 49.65 55.59 L 49.52 56.51 L 49.38 57.41 L 49.21 58.31 L 49.03 59.19 L 48.84 60.06 L 48.62 60.92 L 48.39 61.77 L 48.14 62.60 L 47.88 63.41 L 47.60 64.21 L 47.30 64.99 L 47.00 65.74 L 46.68 66.48 L 46.34 67.20 L 46.00 67.89 L 45.65 68.56 L 45.28 69.21 L 44.91 69.83 L 44.53 70.43 L 44.14 71.00 L 43.74 71.55 L 43.34 72.06 L 42.93 72.55 L 42.52 73.01 L 42.11 73.45 L 41.69 73.85 L 41.28 74.22 L 40.86 74.57 L 40.45 74.88 L 40.04 75.16 L 39.63 75.42 L 39.22 75.64 L 38.82 75.83 L 38.43 75.99 L 38.04 76.12 L 37.66 76.21 L 37.30 76.28 L 36.94 76.32 L 36.59 76.32 L 36.25 76.30 L 35.93 76.24 L 35.62 76.16 L 35.32 76.05 L 35.04 75.90 L 34.78 75.73 L 34.54 75.53 L 34.31 75.31 L 34.10 75.06 L 33.91 74.78 L 33.74 74.47 L 33.59 74.14 L 33.47 73.79 L 33.36 73.41 L 33.28 73.01 L 33.22 72.59 L 33.19 72.15 L 33.17 71.69 L 33.19 71.21 L 33.23 70.71 L 33.29 70.20 L 33.38 69.66 L 33.50 69.12 L 33.64 68.56 L 33.81 67.98 L 34.00 67.40 L 34.22 66.80 L 34.47 66.19 L 34.74 65.58 L 35.04 64.96 L 35.37 64.33 L 35.72 63.69 L 36.10 63.05 L 36.51 62.41 L 36.93 61.76 L 37.39 61.12 L 37.87 60.47 L 38.37 59.83 L 38.90 59.19 L 39.45 58.55 L 40.02 57.91 L 40.61 57.28 L 41.23 56.66 L 41.87 56.04 L 42.52 55.43 L 43.20 54.83 L 43.89 54.25 L 44.60 53.67 L 45.33 53.10 L 46.08 52.55 L 46.83 52.01 L 47.61 51.48 L 48.39 50.97 L 49.19 50.48 L 50.00 50.00 L 50.82 49.54 L 51.65 49.10 L 52.48 48.67 L 53.32 48.26 L 54.17 47.88 L 55.02 47.51 L 55.87 47.16 L 56.73 46.83 L 57.59 46.53 L 58.44 46.24 L 59.30 45.98 L 60.15 45.73 L 61.00 45.51 L 61.84 45.31 L 62.68 45.13 L 63.51 44.98 L 64.33 44.84 L 65.14 44.73 L 65.93 44.64 L 66.72 44.57 L 67.49 44.52 L 68.25 44.49 L 69.00 44.48 L 69.72 44.49 L 70.43 44.53 L 71.12 44.58 L 71.79 44.65 L 72.44 44.74 L 73.07 44.84 L 73.67 44.97 L 74.25 45.11 L 74.81 45.27 L 75.34 45.44 L 75.84 45.63 L 76.32 45.83 L 76.77 46.05 L 77.20 46.27 L 77.59 46.51 L 77.96 46.77 L 78.29 47.03 L 78.60 47.30 L 78.87 47.58 L 79.11 47.86 L 79.32 48.16 L 79.50 48.45 L 79.65 48.76 L 79.76 49.06 L 79.85 49.37 L 79.90 49.69 L 79.91 50.00 Z" fill="none" stroke="#0067ff" stroke-width="3.5" stroke-linecap="round" stroke-linejoin="round"/>
</svg>
